<mxfile host="app.diagrams.net" modified="2023-07-02T22:01:02.066Z" agent="Mozilla/5.0 (Windows NT 10.0; Win64; x64) AppleWebKit/537.36 (KHTML, like Gecko) Chrome/114.0.0.0 Safari/537.36" etag="un-jiqOeToS3yGjB6CRZ" version="21.5.2" type="device">
  <diagram name="Страница 1" id="0Avd5gH1sduo3iyFghah">
    <mxGraphModel dx="869" dy="448" grid="1" gridSize="10" guides="1" tooltips="1" connect="1" arrows="1" fold="1" page="1" pageScale="1" pageWidth="827" pageHeight="1169" math="0" shadow="0">
      <root>
        <mxCell id="0" />
        <mxCell id="1" parent="0" />
        <mxCell id="6V8AmK1u2AiuP1S7PHM--16" style="edgeStyle=orthogonalEdgeStyle;rounded=0;orthogonalLoop=1;jettySize=auto;html=1;entryX=0;entryY=0.5;entryDx=0;entryDy=0;" edge="1" parent="1" source="6V8AmK1u2AiuP1S7PHM--1" target="6V8AmK1u2AiuP1S7PHM--8">
          <mxGeometry relative="1" as="geometry" />
        </mxCell>
        <mxCell id="6V8AmK1u2AiuP1S7PHM--1" value="ВА1&amp;nbsp;&lt;br&gt;Датчик света" style="rounded=1;whiteSpace=wrap;html=1;" vertex="1" parent="1">
          <mxGeometry x="140" y="250" width="120" height="60" as="geometry" />
        </mxCell>
        <mxCell id="6V8AmK1u2AiuP1S7PHM--17" style="edgeStyle=orthogonalEdgeStyle;rounded=0;orthogonalLoop=1;jettySize=auto;html=1;entryX=0;entryY=0.5;entryDx=0;entryDy=0;" edge="1" parent="1" source="6V8AmK1u2AiuP1S7PHM--2" target="6V8AmK1u2AiuP1S7PHM--8">
          <mxGeometry relative="1" as="geometry">
            <mxPoint x="310" y="370" as="targetPoint" />
          </mxGeometry>
        </mxCell>
        <mxCell id="6V8AmK1u2AiuP1S7PHM--2" value="ВА2&amp;nbsp;&lt;br&gt;Датчик температуры на уровне пола" style="rounded=1;whiteSpace=wrap;html=1;" vertex="1" parent="1">
          <mxGeometry x="140" y="340" width="120" height="60" as="geometry" />
        </mxCell>
        <mxCell id="6V8AmK1u2AiuP1S7PHM--18" style="edgeStyle=orthogonalEdgeStyle;rounded=0;orthogonalLoop=1;jettySize=auto;html=1;entryX=0;entryY=0.5;entryDx=0;entryDy=0;" edge="1" parent="1" source="6V8AmK1u2AiuP1S7PHM--3" target="6V8AmK1u2AiuP1S7PHM--8">
          <mxGeometry relative="1" as="geometry">
            <mxPoint x="290" y="510" as="targetPoint" />
          </mxGeometry>
        </mxCell>
        <mxCell id="6V8AmK1u2AiuP1S7PHM--3" value="ВА3&amp;nbsp;&lt;br&gt;Датчик температуры на уровне головы" style="rounded=1;whiteSpace=wrap;html=1;" vertex="1" parent="1">
          <mxGeometry x="140" y="430" width="120" height="60" as="geometry" />
        </mxCell>
        <mxCell id="6V8AmK1u2AiuP1S7PHM--19" style="edgeStyle=orthogonalEdgeStyle;rounded=0;orthogonalLoop=1;jettySize=auto;html=1;entryX=0;entryY=0.5;entryDx=0;entryDy=0;" edge="1" parent="1" source="6V8AmK1u2AiuP1S7PHM--4" target="6V8AmK1u2AiuP1S7PHM--8">
          <mxGeometry relative="1" as="geometry">
            <mxPoint x="300" y="580" as="targetPoint" />
          </mxGeometry>
        </mxCell>
        <mxCell id="6V8AmK1u2AiuP1S7PHM--4" value="ВА4&lt;br&gt;Заряд источника питания" style="rounded=1;whiteSpace=wrap;html=1;" vertex="1" parent="1">
          <mxGeometry x="140" y="520" width="120" height="60" as="geometry" />
        </mxCell>
        <mxCell id="6V8AmK1u2AiuP1S7PHM--20" style="edgeStyle=orthogonalEdgeStyle;rounded=0;orthogonalLoop=1;jettySize=auto;html=1;entryX=0;entryY=0.5;entryDx=0;entryDy=0;" edge="1" parent="1" source="6V8AmK1u2AiuP1S7PHM--5" target="6V8AmK1u2AiuP1S7PHM--8">
          <mxGeometry relative="1" as="geometry" />
        </mxCell>
        <mxCell id="6V8AmK1u2AiuP1S7PHM--5" value="ВД1&lt;br&gt;Датчик дыма" style="rounded=1;whiteSpace=wrap;html=1;" vertex="1" parent="1">
          <mxGeometry x="140" y="610" width="120" height="60" as="geometry" />
        </mxCell>
        <mxCell id="6V8AmK1u2AiuP1S7PHM--21" style="edgeStyle=orthogonalEdgeStyle;rounded=0;orthogonalLoop=1;jettySize=auto;html=1;entryX=0;entryY=0.5;entryDx=0;entryDy=0;" edge="1" parent="1" source="6V8AmK1u2AiuP1S7PHM--6" target="6V8AmK1u2AiuP1S7PHM--8">
          <mxGeometry relative="1" as="geometry" />
        </mxCell>
        <mxCell id="6V8AmK1u2AiuP1S7PHM--6" value="ВД2&lt;br&gt;Кнопка сигнализации" style="rounded=1;whiteSpace=wrap;html=1;" vertex="1" parent="1">
          <mxGeometry x="140" y="700" width="120" height="60" as="geometry" />
        </mxCell>
        <mxCell id="6V8AmK1u2AiuP1S7PHM--22" style="edgeStyle=orthogonalEdgeStyle;rounded=0;orthogonalLoop=1;jettySize=auto;html=1;entryX=0;entryY=0.5;entryDx=0;entryDy=0;" edge="1" parent="1" source="6V8AmK1u2AiuP1S7PHM--7" target="6V8AmK1u2AiuP1S7PHM--8">
          <mxGeometry relative="1" as="geometry" />
        </mxCell>
        <mxCell id="6V8AmK1u2AiuP1S7PHM--7" value="ВД3&lt;br&gt;Кнопка включения системы сигнализации" style="rounded=1;whiteSpace=wrap;html=1;" vertex="1" parent="1">
          <mxGeometry x="140" y="790" width="120" height="60" as="geometry" />
        </mxCell>
        <mxCell id="6V8AmK1u2AiuP1S7PHM--23" style="edgeStyle=orthogonalEdgeStyle;rounded=0;orthogonalLoop=1;jettySize=auto;html=1;entryX=0;entryY=0.5;entryDx=0;entryDy=0;" edge="1" parent="1" source="6V8AmK1u2AiuP1S7PHM--8" target="6V8AmK1u2AiuP1S7PHM--9">
          <mxGeometry relative="1" as="geometry" />
        </mxCell>
        <mxCell id="6V8AmK1u2AiuP1S7PHM--25" style="edgeStyle=orthogonalEdgeStyle;rounded=0;orthogonalLoop=1;jettySize=auto;html=1;exitX=1;exitY=0.5;exitDx=0;exitDy=0;entryX=0;entryY=0.5;entryDx=0;entryDy=0;" edge="1" parent="1" source="6V8AmK1u2AiuP1S7PHM--8" target="6V8AmK1u2AiuP1S7PHM--10">
          <mxGeometry relative="1" as="geometry" />
        </mxCell>
        <mxCell id="6V8AmK1u2AiuP1S7PHM--26" style="edgeStyle=orthogonalEdgeStyle;rounded=0;orthogonalLoop=1;jettySize=auto;html=1;entryX=0;entryY=0.5;entryDx=0;entryDy=0;" edge="1" parent="1" source="6V8AmK1u2AiuP1S7PHM--8" target="6V8AmK1u2AiuP1S7PHM--11">
          <mxGeometry relative="1" as="geometry" />
        </mxCell>
        <mxCell id="6V8AmK1u2AiuP1S7PHM--27" style="edgeStyle=orthogonalEdgeStyle;rounded=0;orthogonalLoop=1;jettySize=auto;html=1;entryX=0;entryY=0.5;entryDx=0;entryDy=0;" edge="1" parent="1" source="6V8AmK1u2AiuP1S7PHM--8" target="6V8AmK1u2AiuP1S7PHM--12">
          <mxGeometry relative="1" as="geometry" />
        </mxCell>
        <mxCell id="6V8AmK1u2AiuP1S7PHM--28" style="edgeStyle=orthogonalEdgeStyle;rounded=0;orthogonalLoop=1;jettySize=auto;html=1;entryX=0;entryY=0.5;entryDx=0;entryDy=0;" edge="1" parent="1" source="6V8AmK1u2AiuP1S7PHM--8" target="6V8AmK1u2AiuP1S7PHM--13">
          <mxGeometry relative="1" as="geometry" />
        </mxCell>
        <mxCell id="6V8AmK1u2AiuP1S7PHM--29" style="edgeStyle=orthogonalEdgeStyle;rounded=0;orthogonalLoop=1;jettySize=auto;html=1;entryX=0;entryY=0.5;entryDx=0;entryDy=0;" edge="1" parent="1" source="6V8AmK1u2AiuP1S7PHM--8" target="6V8AmK1u2AiuP1S7PHM--14">
          <mxGeometry relative="1" as="geometry" />
        </mxCell>
        <mxCell id="6V8AmK1u2AiuP1S7PHM--30" style="edgeStyle=orthogonalEdgeStyle;rounded=0;orthogonalLoop=1;jettySize=auto;html=1;entryX=0;entryY=0.5;entryDx=0;entryDy=0;" edge="1" parent="1" source="6V8AmK1u2AiuP1S7PHM--8" target="6V8AmK1u2AiuP1S7PHM--15">
          <mxGeometry relative="1" as="geometry" />
        </mxCell>
        <mxCell id="6V8AmK1u2AiuP1S7PHM--8" value="Контроллер" style="rounded=0;whiteSpace=wrap;html=1;" vertex="1" parent="1">
          <mxGeometry x="354" y="520" width="120" height="60" as="geometry" />
        </mxCell>
        <mxCell id="6V8AmK1u2AiuP1S7PHM--9" value="ДВ1&lt;br&gt;Кнопка сигнализации" style="rounded=1;whiteSpace=wrap;html=1;" vertex="1" parent="1">
          <mxGeometry x="560" y="250" width="120" height="60" as="geometry" />
        </mxCell>
        <mxCell id="6V8AmK1u2AiuP1S7PHM--10" value="ДВ2&lt;br&gt;Лампа сигнализации&lt;br&gt;" style="rounded=1;whiteSpace=wrap;html=1;" vertex="1" parent="1">
          <mxGeometry x="560" y="340" width="120" height="60" as="geometry" />
        </mxCell>
        <mxCell id="6V8AmK1u2AiuP1S7PHM--11" value="ДВ3&lt;br&gt;Динамик сигнализации" style="rounded=1;whiteSpace=wrap;html=1;" vertex="1" parent="1">
          <mxGeometry x="560" y="430" width="120" height="60" as="geometry" />
        </mxCell>
        <mxCell id="6V8AmK1u2AiuP1S7PHM--12" value="ДВ4&lt;br&gt;Сигнал на противопожарную систему" style="rounded=1;whiteSpace=wrap;html=1;" vertex="1" parent="1">
          <mxGeometry x="560" y="520" width="120" height="60" as="geometry" />
        </mxCell>
        <mxCell id="6V8AmK1u2AiuP1S7PHM--13" value="ДВ5&lt;br&gt;Сигнал охраннику" style="rounded=1;whiteSpace=wrap;html=1;" vertex="1" parent="1">
          <mxGeometry x="560" y="610" width="120" height="60" as="geometry" />
        </mxCell>
        <mxCell id="6V8AmK1u2AiuP1S7PHM--14" value="ДВ6&lt;br&gt;Сигнал на пожарную станцию&lt;br&gt;" style="rounded=1;whiteSpace=wrap;html=1;" vertex="1" parent="1">
          <mxGeometry x="560" y="700" width="120" height="60" as="geometry" />
        </mxCell>
        <mxCell id="6V8AmK1u2AiuP1S7PHM--15" value="ДВ7&lt;br&gt;Сигнал мастеру" style="rounded=1;whiteSpace=wrap;html=1;" vertex="1" parent="1">
          <mxGeometry x="560" y="790" width="120" height="60" as="geometry" />
        </mxCell>
      </root>
    </mxGraphModel>
  </diagram>
</mxfile>
